<mxfile host="app.diagrams.net" agent="Mozilla/5.0 (Windows NT 10.0; Win64; x64) AppleWebKit/537.36 (KHTML, like Gecko) Chrome/131.0.0.0 Safari/537.36" version="24.9.1" pages="2">
  <diagram name="Page-1" id="74e2e168-ea6b-b213-b513-2b3c1d86103e">
    <mxGraphModel dx="3102" dy="1686" grid="1" gridSize="10" guides="1" tooltips="1" connect="1" arrows="1" fold="1" page="1" pageScale="1" pageWidth="1100" pageHeight="850" background="none" math="0" shadow="0">
      <root>
        <mxCell id="0" />
        <mxCell id="1" parent="0" />
        <mxCell id="iIjJSz37-zNfU8AyJNP5-113" value="" style="group;fillColor=#f5f5f5;fontColor=#333333;strokeColor=#666666;" connectable="0" vertex="1" parent="1">
          <mxGeometry x="-611" y="740" width="1651" height="958" as="geometry" />
        </mxCell>
        <mxCell id="iIjJSz37-zNfU8AyJNP5-111" value="" style="group" connectable="0" vertex="1" parent="iIjJSz37-zNfU8AyJNP5-113">
          <mxGeometry y="40" width="1651" height="918" as="geometry" />
        </mxCell>
        <mxCell id="iIjJSz37-zNfU8AyJNP5-53" value="Informa identidade já cadastrada" style="html=1;overflow=block;blockSpacing=1;whiteSpace=wrap;fontSize=13;align=center;spacing=9;strokeColor=#ff80df;strokeOpacity=100;fillOpacity=100;rounded=1;absoluteArcSize=1;arcSize=12;fillColor=#dfe3e8;strokeWidth=1.5;lucidId=IMVuKGuR~jhK;container=0;" vertex="1" parent="iIjJSz37-zNfU8AyJNP5-111">
          <mxGeometry x="1160" y="263" width="83" height="132" as="geometry" />
        </mxCell>
        <mxCell id="iIjJSz37-zNfU8AyJNP5-58" value="" style="html=1;jettySize=18;whiteSpace=wrap;fontSize=13;strokeColor=#333333;strokeOpacity=100;strokeWidth=0.8;rounded=1;arcSize=24;edgeStyle=orthogonalEdgeStyle;startArrow=none;endArrow=block;endFill=1;exitX=1.009;exitY=0.5;exitPerimeter=0;lucidId=IMVut0fvm8wi;" edge="1" parent="iIjJSz37-zNfU8AyJNP5-111" source="iIjJSz37-zNfU8AyJNP5-53">
          <mxGeometry width="100" height="100" relative="1" as="geometry">
            <Array as="points">
              <mxPoint x="1284" y="331" />
              <mxPoint x="1284" y="478" />
              <mxPoint x="968" y="478" />
            </Array>
            <mxPoint x="968" y="106" as="targetPoint" />
          </mxGeometry>
        </mxCell>
        <mxCell id="iIjJSz37-zNfU8AyJNP5-43" value="Inicio" style="html=1;overflow=block;blockSpacing=1;whiteSpace=wrap;fontSize=13;align=center;spacing=3.8;strokeColor=#e08fff;strokeOpacity=100;fillOpacity=100;rounded=1;absoluteArcSize=1;arcSize=12;fillColor=#fafbfc;strokeWidth=1.5;lucidId=TKVuD-CeohGE;container=0;" vertex="1" parent="iIjJSz37-zNfU8AyJNP5-111">
          <mxGeometry y="4" width="66" height="65" as="geometry" />
        </mxCell>
        <mxCell id="iIjJSz37-zNfU8AyJNP5-55" value="Fim" style="html=1;overflow=block;blockSpacing=1;whiteSpace=wrap;fontSize=13;align=center;spacing=3.8;strokeColor=#e08fff;strokeOpacity=100;fillOpacity=100;rounded=1;absoluteArcSize=1;arcSize=12;fillColor=#fafbfc;strokeWidth=1.5;lucidId=IMVu8w95FYgF;container=0;" vertex="1" parent="iIjJSz37-zNfU8AyJNP5-111">
          <mxGeometry x="1415" width="66" height="65" as="geometry" />
        </mxCell>
        <mxCell id="iIjJSz37-zNfU8AyJNP5-56" value="" style="html=1;jettySize=18;whiteSpace=wrap;fontSize=13;strokeColor=#333333;strokeOpacity=100;strokeWidth=0.8;rounded=1;arcSize=24;edgeStyle=orthogonalEdgeStyle;startArrow=none;endArrow=block;endFill=1;exitX=0.5;exitY=0.98;exitPerimeter=0;entryX=-0.009;entryY=0.5;entryPerimeter=0;lucidId=IMVuoLYOVCrK;" edge="1" parent="iIjJSz37-zNfU8AyJNP5-113" source="iIjJSz37-zNfU8AyJNP5-52" target="iIjJSz37-zNfU8AyJNP5-53">
          <mxGeometry width="100" height="100" relative="1" as="geometry">
            <Array as="points" />
          </mxGeometry>
        </mxCell>
        <mxCell id="iIjJSz37-zNfU8AyJNP5-57" value="Sim" style="text;html=1;resizable=0;labelBackgroundColor=default;align=center;verticalAlign=middle;fontColor=#666666;fontSize=13;container=0;" vertex="1" parent="iIjJSz37-zNfU8AyJNP5-56">
          <mxGeometry relative="1" as="geometry" />
        </mxCell>
        <mxCell id="iIjJSz37-zNfU8AyJNP5-44" value="" style="html=1;jettySize=18;whiteSpace=wrap;fontSize=13;strokeColor=#333333;strokeOpacity=100;strokeWidth=0.8;rounded=1;arcSize=24;edgeStyle=orthogonalEdgeStyle;startArrow=none;endArrow=block;endFill=1;exitX=1.011;exitY=0.5;exitPerimeter=0;entryX=-0.009;entryY=0.531;entryPerimeter=0;lucidId=TKVuo6z7ys-k;" edge="1" parent="iIjJSz37-zNfU8AyJNP5-113" source="iIjJSz37-zNfU8AyJNP5-43" target="iIjJSz37-zNfU8AyJNP5-47">
          <mxGeometry width="100" height="100" relative="1" as="geometry">
            <Array as="points" />
          </mxGeometry>
        </mxCell>
        <mxCell id="iIjJSz37-zNfU8AyJNP5-61" value="" style="html=1;jettySize=18;whiteSpace=wrap;fontSize=13;strokeColor=#333333;strokeOpacity=100;strokeWidth=0.8;rounded=1;arcSize=24;edgeStyle=orthogonalEdgeStyle;startArrow=none;endArrow=block;endFill=1;exitX=1.009;exitY=0.5;exitPerimeter=0;entryX=-0.011;entryY=0.501;entryPerimeter=0;lucidId=pNVu_cprBSpg;" edge="1" parent="iIjJSz37-zNfU8AyJNP5-113" source="iIjJSz37-zNfU8AyJNP5-54" target="iIjJSz37-zNfU8AyJNP5-55">
          <mxGeometry width="100" height="100" relative="1" as="geometry">
            <Array as="points" />
          </mxGeometry>
        </mxCell>
        <mxCell id="iIjJSz37-zNfU8AyJNP5-47" value="Acessar barra lateral" style="html=1;overflow=block;blockSpacing=1;whiteSpace=wrap;fontSize=13;align=center;spacing=9;strokeColor=#666666;strokeOpacity=100;fillOpacity=100;rounded=1;absoluteArcSize=1;arcSize=12;fillColor=#f5f5f5;strokeWidth=1.5;lucidId=TKVu174VIa4P;container=0;fontColor=#333333;" vertex="1" parent="iIjJSz37-zNfU8AyJNP5-113">
          <mxGeometry x="281" y="6" width="83" height="132" as="geometry" />
        </mxCell>
        <mxCell id="iIjJSz37-zNfU8AyJNP5-48" value="Clicar em cadastro cliente" style="html=1;overflow=block;blockSpacing=1;whiteSpace=wrap;fontSize=13;align=center;spacing=9;strokeColor=#666666;strokeOpacity=100;fillOpacity=100;rounded=1;absoluteArcSize=1;arcSize=12;fillColor=#f5f5f5;strokeWidth=1.5;lucidId=TKVu3g~mCkBQ;container=0;fontColor=#333333;" vertex="1" parent="iIjJSz37-zNfU8AyJNP5-113">
          <mxGeometry x="746" y="8" width="83" height="132" as="geometry" />
        </mxCell>
        <mxCell id="iIjJSz37-zNfU8AyJNP5-49" value="Clicar em Cadastros" style="html=1;overflow=block;blockSpacing=1;whiteSpace=wrap;fontSize=13;align=center;spacing=9;strokeColor=#666666;strokeOpacity=100;fillOpacity=100;rounded=1;absoluteArcSize=1;arcSize=12;fillColor=#f5f5f5;strokeWidth=1.5;lucidId=TKVugKPUELmh;container=0;fontColor=#333333;" vertex="1" parent="iIjJSz37-zNfU8AyJNP5-113">
          <mxGeometry x="536" y="8" width="83" height="132" as="geometry" />
        </mxCell>
        <mxCell id="iIjJSz37-zNfU8AyJNP5-50" value="Funcionario preenche todos os campos e clica em Cadastrar novo Cliente" style="html=1;overflow=block;blockSpacing=1;whiteSpace=wrap;fontSize=13;align=center;spacing=9;strokeColor=#ff80df;strokeOpacity=100;fillOpacity=100;rounded=1;absoluteArcSize=1;arcSize=12;fillColor=#dfe3e8;strokeWidth=1.5;lucidId=TLVueEcK-3IP;container=0;" vertex="1" parent="iIjJSz37-zNfU8AyJNP5-113">
          <mxGeometry x="926" width="83" height="148" as="geometry" />
        </mxCell>
        <mxCell id="iIjJSz37-zNfU8AyJNP5-52" value="Cliente já cadastrado?" style="html=1;overflow=block;blockSpacing=1;whiteSpace=wrap;rhombus;fontSize=13;fontColor=#ffffff;align=center;spacing=3.8;strokeColor=#6db1ff;strokeOpacity=100;fillOpacity=100;rounded=1;absoluteArcSize=1;arcSize=12;fillColor=#4c535d;strokeWidth=1.5;lucidId=IMVukuP4WiCF;container=0;" vertex="1" parent="iIjJSz37-zNfU8AyJNP5-113">
          <mxGeometry x="1086" y="7" width="82" height="131" as="geometry" />
        </mxCell>
        <mxCell id="iIjJSz37-zNfU8AyJNP5-54" value="Cadastrar novo cliente" style="html=1;overflow=block;blockSpacing=1;whiteSpace=wrap;fontSize=13;align=center;spacing=9;strokeColor=#ff80df;strokeOpacity=100;fillOpacity=100;rounded=1;absoluteArcSize=1;arcSize=12;fillColor=#dfe3e8;strokeWidth=1.5;lucidId=IMVuV4y2Wr4b;container=0;" vertex="1" parent="iIjJSz37-zNfU8AyJNP5-113">
          <mxGeometry x="1250" y="6" width="83" height="132" as="geometry" />
        </mxCell>
        <mxCell id="iIjJSz37-zNfU8AyJNP5-45" value="" style="html=1;jettySize=18;whiteSpace=wrap;fontSize=13;strokeColor=#333333;strokeOpacity=100;strokeWidth=0.8;rounded=1;arcSize=24;edgeStyle=orthogonalEdgeStyle;startArrow=none;endArrow=block;endFill=1;exitX=1.009;exitY=0.5;exitPerimeter=0;entryX=-0.009;entryY=0.488;entryPerimeter=0;lucidId=TKVu0_wFNO7J;" edge="1" parent="iIjJSz37-zNfU8AyJNP5-113" source="iIjJSz37-zNfU8AyJNP5-47" target="iIjJSz37-zNfU8AyJNP5-49">
          <mxGeometry width="100" height="100" relative="1" as="geometry">
            <Array as="points" />
          </mxGeometry>
        </mxCell>
        <mxCell id="iIjJSz37-zNfU8AyJNP5-46" value="" style="html=1;jettySize=18;whiteSpace=wrap;fontSize=13;strokeColor=#333333;strokeOpacity=100;strokeWidth=0.8;rounded=1;arcSize=24;edgeStyle=orthogonalEdgeStyle;startArrow=none;endArrow=block;endFill=1;exitX=1.009;exitY=0.5;exitPerimeter=0;entryX=-0.009;entryY=0.5;entryPerimeter=0;lucidId=TKVuQf85Eefx;" edge="1" parent="iIjJSz37-zNfU8AyJNP5-113" source="iIjJSz37-zNfU8AyJNP5-49" target="iIjJSz37-zNfU8AyJNP5-48">
          <mxGeometry width="100" height="100" relative="1" as="geometry">
            <Array as="points" />
          </mxGeometry>
        </mxCell>
        <mxCell id="iIjJSz37-zNfU8AyJNP5-51" value="" style="html=1;jettySize=18;whiteSpace=wrap;fontSize=13;strokeColor=#333333;strokeOpacity=100;strokeWidth=0.8;rounded=1;arcSize=24;edgeStyle=orthogonalEdgeStyle;startArrow=none;endArrow=block;endFill=1;exitX=1.009;exitY=0.5;exitPerimeter=0;entryX=-0.009;entryY=0.5;entryPerimeter=0;lucidId=-LVuaBZoTzxL;" edge="1" parent="iIjJSz37-zNfU8AyJNP5-113" source="iIjJSz37-zNfU8AyJNP5-48" target="iIjJSz37-zNfU8AyJNP5-50">
          <mxGeometry width="100" height="100" relative="1" as="geometry">
            <Array as="points" />
          </mxGeometry>
        </mxCell>
        <mxCell id="iIjJSz37-zNfU8AyJNP5-59" value="" style="html=1;jettySize=18;whiteSpace=wrap;fontSize=13;strokeColor=#333333;strokeOpacity=100;strokeWidth=0.8;rounded=1;arcSize=24;edgeStyle=orthogonalEdgeStyle;startArrow=none;endArrow=block;endFill=1;exitX=1.009;exitY=0.472;exitPerimeter=0;entryX=0.016;entryY=0.481;entryPerimeter=0;lucidId=~MVuYsn6NPdR;" edge="1" parent="iIjJSz37-zNfU8AyJNP5-113" source="iIjJSz37-zNfU8AyJNP5-50" target="iIjJSz37-zNfU8AyJNP5-52">
          <mxGeometry width="100" height="100" relative="1" as="geometry">
            <Array as="points" />
          </mxGeometry>
        </mxCell>
        <mxCell id="iIjJSz37-zNfU8AyJNP5-60" value="" style="html=1;jettySize=18;whiteSpace=wrap;fontSize=13;strokeColor=#333333;strokeOpacity=100;strokeWidth=0.8;rounded=1;arcSize=24;edgeStyle=orthogonalEdgeStyle;startArrow=none;endArrow=block;endFill=1;exitX=0.988;exitY=0.5;exitPerimeter=0;entryX=-0.009;entryY=0.578;entryPerimeter=0;lucidId=iNVuGRAHNX2a;" edge="1" parent="iIjJSz37-zNfU8AyJNP5-113" source="iIjJSz37-zNfU8AyJNP5-52" target="iIjJSz37-zNfU8AyJNP5-54">
          <mxGeometry width="100" height="100" relative="1" as="geometry">
            <Array as="points" />
          </mxGeometry>
        </mxCell>
        <mxCell id="PQvnsBKQmbBAYxfNCc_0-1" value="&lt;font style=&quot;font-size: 24px;&quot;&gt;Cadastro Funcionários&lt;/font&gt;" style="swimlane;whiteSpace=wrap;html=1;fillColor=#666666;" vertex="1" parent="1">
          <mxGeometry x="-620" y="-800" width="1250" height="480" as="geometry" />
        </mxCell>
        <mxCell id="3b2dGS7JebyrkdOw-JS--33" style="edgeStyle=orthogonalEdgeStyle;rounded=0;orthogonalLoop=1;jettySize=auto;html=1;entryX=0;entryY=0.5;entryDx=0;entryDy=0;" edge="1" parent="PQvnsBKQmbBAYxfNCc_0-1" source="PQvnsBKQmbBAYxfNCc_0-21" target="3b2dGS7JebyrkdOw-JS--24">
          <mxGeometry relative="1" as="geometry" />
        </mxCell>
        <mxCell id="PQvnsBKQmbBAYxfNCc_0-21" value="&lt;span style=&quot;font-size: 13px;&quot;&gt;Acessar barra lateral&lt;/span&gt;" style="ellipse;whiteSpace=wrap;html=1;aspect=fixed;fillColor=none;" vertex="1" parent="PQvnsBKQmbBAYxfNCc_0-1">
          <mxGeometry x="30" y="66.5" width="100" height="100" as="geometry" />
        </mxCell>
        <mxCell id="3b2dGS7JebyrkdOw-JS--34" style="edgeStyle=orthogonalEdgeStyle;rounded=0;orthogonalLoop=1;jettySize=auto;html=1;exitX=1;exitY=0.5;exitDx=0;exitDy=0;entryX=0;entryY=0.5;entryDx=0;entryDy=0;" edge="1" parent="PQvnsBKQmbBAYxfNCc_0-1" source="3b2dGS7JebyrkdOw-JS--24" target="3b2dGS7JebyrkdOw-JS--25">
          <mxGeometry relative="1" as="geometry" />
        </mxCell>
        <mxCell id="3b2dGS7JebyrkdOw-JS--24" value="&lt;span style=&quot;font-size: 13px;&quot;&gt;Clicar em Cadastros&lt;/span&gt;" style="whiteSpace=wrap;html=1;aspect=fixed;" vertex="1" parent="PQvnsBKQmbBAYxfNCc_0-1">
          <mxGeometry x="180" y="46.5" width="140" height="140" as="geometry" />
        </mxCell>
        <mxCell id="3b2dGS7JebyrkdOw-JS--36" style="edgeStyle=orthogonalEdgeStyle;rounded=0;orthogonalLoop=1;jettySize=auto;html=1;exitX=1;exitY=0.5;exitDx=0;exitDy=0;entryX=0;entryY=0.5;entryDx=0;entryDy=0;" edge="1" parent="PQvnsBKQmbBAYxfNCc_0-1" source="3b2dGS7JebyrkdOw-JS--25" target="3b2dGS7JebyrkdOw-JS--26">
          <mxGeometry relative="1" as="geometry" />
        </mxCell>
        <mxCell id="3b2dGS7JebyrkdOw-JS--25" value="&lt;span style=&quot;font-size: 14px;&quot;&gt;Clicar em Funcionários&lt;/span&gt;" style="whiteSpace=wrap;html=1;aspect=fixed;" vertex="1" parent="PQvnsBKQmbBAYxfNCc_0-1">
          <mxGeometry x="350" y="46.5" width="140" height="140" as="geometry" />
        </mxCell>
        <mxCell id="3b2dGS7JebyrkdOw-JS--37" style="edgeStyle=orthogonalEdgeStyle;rounded=0;orthogonalLoop=1;jettySize=auto;html=1;exitX=1;exitY=0.5;exitDx=0;exitDy=0;entryX=0;entryY=0.5;entryDx=0;entryDy=0;" edge="1" parent="PQvnsBKQmbBAYxfNCc_0-1" source="3b2dGS7JebyrkdOw-JS--26" target="3b2dGS7JebyrkdOw-JS--28">
          <mxGeometry relative="1" as="geometry" />
        </mxCell>
        <mxCell id="3b2dGS7JebyrkdOw-JS--26" value="&lt;span style=&quot;font-size: 14px;&quot;&gt;Funcionario preenche todos os campos&lt;/span&gt;" style="whiteSpace=wrap;html=1;aspect=fixed;" vertex="1" parent="PQvnsBKQmbBAYxfNCc_0-1">
          <mxGeometry x="520" y="47" width="140" height="140" as="geometry" />
        </mxCell>
        <mxCell id="3b2dGS7JebyrkdOw-JS--40" style="edgeStyle=orthogonalEdgeStyle;rounded=0;orthogonalLoop=1;jettySize=auto;html=1;exitX=0;exitY=0.5;exitDx=0;exitDy=0;entryX=0.5;entryY=1;entryDx=0;entryDy=0;" edge="1" parent="PQvnsBKQmbBAYxfNCc_0-1" source="3b2dGS7JebyrkdOw-JS--27" target="3b2dGS7JebyrkdOw-JS--26">
          <mxGeometry relative="1" as="geometry" />
        </mxCell>
        <mxCell id="3b2dGS7JebyrkdOw-JS--27" value="&lt;span style=&quot;font-size: 14px;&quot;&gt;Exibe mensagem de usuario já cadastrado&lt;/span&gt;" style="whiteSpace=wrap;html=1;aspect=fixed;" vertex="1" parent="PQvnsBKQmbBAYxfNCc_0-1">
          <mxGeometry x="681" y="320" width="140" height="140" as="geometry" />
        </mxCell>
        <mxCell id="3b2dGS7JebyrkdOw-JS--38" value="" style="edgeStyle=orthogonalEdgeStyle;rounded=0;orthogonalLoop=1;jettySize=auto;html=1;" edge="1" parent="PQvnsBKQmbBAYxfNCc_0-1" source="3b2dGS7JebyrkdOw-JS--28" target="3b2dGS7JebyrkdOw-JS--27">
          <mxGeometry relative="1" as="geometry" />
        </mxCell>
        <mxCell id="3b2dGS7JebyrkdOw-JS--39" value="&lt;font style=&quot;font-size: 14px;&quot;&gt;SIM&lt;/font&gt;" style="edgeLabel;html=1;align=center;verticalAlign=middle;resizable=0;points=[];" vertex="1" connectable="0" parent="3b2dGS7JebyrkdOw-JS--38">
          <mxGeometry x="-0.1567" y="3" relative="1" as="geometry">
            <mxPoint x="-3" as="offset" />
          </mxGeometry>
        </mxCell>
        <mxCell id="3b2dGS7JebyrkdOw-JS--42" value="" style="edgeStyle=orthogonalEdgeStyle;rounded=0;orthogonalLoop=1;jettySize=auto;html=1;" edge="1" parent="PQvnsBKQmbBAYxfNCc_0-1" source="3b2dGS7JebyrkdOw-JS--28" target="3b2dGS7JebyrkdOw-JS--29">
          <mxGeometry relative="1" as="geometry" />
        </mxCell>
        <mxCell id="3b2dGS7JebyrkdOw-JS--43" value="&lt;font style=&quot;font-size: 14px;&quot;&gt;NÃO&lt;/font&gt;" style="edgeLabel;html=1;align=center;verticalAlign=middle;resizable=0;points=[];" vertex="1" connectable="0" parent="3b2dGS7JebyrkdOw-JS--42">
          <mxGeometry x="-0.0412" y="-2" relative="1" as="geometry">
            <mxPoint y="-2" as="offset" />
          </mxGeometry>
        </mxCell>
        <mxCell id="3b2dGS7JebyrkdOw-JS--28" value="&lt;span style=&quot;color: rgb(255, 255, 255); font-size: 14px;&quot;&gt;Funcionário já cadastrado?&lt;/span&gt;" style="rhombus;whiteSpace=wrap;html=1;fillColor=#666666;" vertex="1" parent="PQvnsBKQmbBAYxfNCc_0-1">
          <mxGeometry x="680" y="46.5" width="141" height="140" as="geometry" />
        </mxCell>
        <mxCell id="3b2dGS7JebyrkdOw-JS--45" value="" style="edgeStyle=orthogonalEdgeStyle;rounded=0;orthogonalLoop=1;jettySize=auto;html=1;" edge="1" parent="PQvnsBKQmbBAYxfNCc_0-1" source="3b2dGS7JebyrkdOw-JS--29" target="3b2dGS7JebyrkdOw-JS--44">
          <mxGeometry relative="1" as="geometry" />
        </mxCell>
        <mxCell id="3b2dGS7JebyrkdOw-JS--29" value="&lt;span style=&quot;font-size: 14px;&quot;&gt;Funcionario cadastrado&lt;/span&gt;" style="whiteSpace=wrap;html=1;aspect=fixed;" vertex="1" parent="PQvnsBKQmbBAYxfNCc_0-1">
          <mxGeometry x="900" y="46.5" width="140" height="140" as="geometry" />
        </mxCell>
        <mxCell id="3b2dGS7JebyrkdOw-JS--44" value="FIM" style="ellipse;whiteSpace=wrap;html=1;aspect=fixed;fillColor=#999999;" vertex="1" parent="PQvnsBKQmbBAYxfNCc_0-1">
          <mxGeometry x="1130" y="67" width="100" height="100" as="geometry" />
        </mxCell>
        <mxCell id="iIjJSz37-zNfU8AyJNP5-164" value="Informa Storage já cadastrado" style="html=1;overflow=block;blockSpacing=1;whiteSpace=wrap;fontSize=13;align=center;spacing=9;strokeColor=#ff80df;strokeOpacity=100;fillOpacity=100;rounded=1;absoluteArcSize=1;arcSize=12;fillColor=#dfe3e8;strokeWidth=1.5;lucidId=IMVuKGuR~jhK;container=0;" vertex="1" parent="1">
          <mxGeometry x="549" y="1613" width="83" height="132" as="geometry" />
        </mxCell>
        <mxCell id="iIjJSz37-zNfU8AyJNP5-165" value="" style="html=1;jettySize=18;whiteSpace=wrap;fontSize=13;strokeColor=#333333;strokeOpacity=100;strokeWidth=0.8;rounded=1;arcSize=24;edgeStyle=orthogonalEdgeStyle;startArrow=none;endArrow=block;endFill=1;exitX=1.009;exitY=0.5;exitPerimeter=0;lucidId=IMVut0fvm8wi;" edge="1" parent="1" source="iIjJSz37-zNfU8AyJNP5-164">
          <mxGeometry width="100" height="100" relative="1" as="geometry">
            <Array as="points">
              <mxPoint x="673" y="1681" />
              <mxPoint x="673" y="1828" />
              <mxPoint x="357" y="1828" />
            </Array>
            <mxPoint x="357" y="1456" as="targetPoint" />
          </mxGeometry>
        </mxCell>
        <mxCell id="iIjJSz37-zNfU8AyJNP5-166" value="Inicio" style="html=1;overflow=block;blockSpacing=1;whiteSpace=wrap;fontSize=13;align=center;spacing=3.8;strokeColor=#e08fff;strokeOpacity=100;fillOpacity=100;rounded=1;absoluteArcSize=1;arcSize=12;fillColor=#fafbfc;strokeWidth=1.5;lucidId=TKVuD-CeohGE;container=0;" vertex="1" parent="1">
          <mxGeometry x="-611" y="1354" width="66" height="65" as="geometry" />
        </mxCell>
        <mxCell id="iIjJSz37-zNfU8AyJNP5-167" value="Fim" style="html=1;overflow=block;blockSpacing=1;whiteSpace=wrap;fontSize=13;align=center;spacing=3.8;strokeColor=#e08fff;strokeOpacity=100;fillOpacity=100;rounded=1;absoluteArcSize=1;arcSize=12;fillColor=#fafbfc;strokeWidth=1.5;lucidId=IMVu8w95FYgF;container=0;" vertex="1" parent="1">
          <mxGeometry x="804" y="1350" width="66" height="65" as="geometry" />
        </mxCell>
        <mxCell id="iIjJSz37-zNfU8AyJNP5-168" value="" style="html=1;jettySize=18;whiteSpace=wrap;fontSize=13;strokeColor=#333333;strokeOpacity=100;strokeWidth=0.8;rounded=1;arcSize=24;edgeStyle=orthogonalEdgeStyle;startArrow=none;endArrow=block;endFill=1;exitX=0.5;exitY=0.98;exitPerimeter=0;entryX=-0.009;entryY=0.5;entryPerimeter=0;lucidId=IMVuoLYOVCrK;" edge="1" parent="1" source="iIjJSz37-zNfU8AyJNP5-176" target="iIjJSz37-zNfU8AyJNP5-164">
          <mxGeometry width="100" height="100" relative="1" as="geometry">
            <Array as="points" />
          </mxGeometry>
        </mxCell>
        <mxCell id="iIjJSz37-zNfU8AyJNP5-169" value="Sim" style="text;html=1;resizable=0;labelBackgroundColor=default;align=center;verticalAlign=middle;fontColor=#666666;fontSize=13;container=0;" vertex="1" parent="iIjJSz37-zNfU8AyJNP5-168">
          <mxGeometry relative="1" as="geometry" />
        </mxCell>
        <mxCell id="iIjJSz37-zNfU8AyJNP5-170" value="" style="html=1;jettySize=18;whiteSpace=wrap;fontSize=13;strokeColor=#333333;strokeOpacity=100;strokeWidth=0.8;rounded=1;arcSize=24;edgeStyle=orthogonalEdgeStyle;startArrow=none;endArrow=block;endFill=1;exitX=1.011;exitY=0.5;exitPerimeter=0;entryX=-0.009;entryY=0.531;entryPerimeter=0;lucidId=TKVuo6z7ys-k;" edge="1" parent="1" source="iIjJSz37-zNfU8AyJNP5-166" target="iIjJSz37-zNfU8AyJNP5-172">
          <mxGeometry width="100" height="100" relative="1" as="geometry">
            <Array as="points" />
          </mxGeometry>
        </mxCell>
        <mxCell id="iIjJSz37-zNfU8AyJNP5-171" value="" style="html=1;jettySize=18;whiteSpace=wrap;fontSize=13;strokeColor=#333333;strokeOpacity=100;strokeWidth=0.8;rounded=1;arcSize=24;edgeStyle=orthogonalEdgeStyle;startArrow=none;endArrow=block;endFill=1;exitX=1.009;exitY=0.5;exitPerimeter=0;entryX=-0.011;entryY=0.501;entryPerimeter=0;lucidId=pNVu_cprBSpg;" edge="1" parent="1" source="iIjJSz37-zNfU8AyJNP5-177" target="iIjJSz37-zNfU8AyJNP5-167">
          <mxGeometry width="100" height="100" relative="1" as="geometry">
            <Array as="points" />
          </mxGeometry>
        </mxCell>
        <mxCell id="iIjJSz37-zNfU8AyJNP5-172" value="Acessar barra lateral" style="html=1;overflow=block;blockSpacing=1;whiteSpace=wrap;fontSize=13;align=center;spacing=9;strokeColor=#ff80df;strokeOpacity=100;fillOpacity=100;rounded=1;absoluteArcSize=1;arcSize=12;fillColor=#dfe3e8;strokeWidth=1.5;lucidId=TKVu174VIa4P;container=0;" vertex="1" parent="1">
          <mxGeometry x="-330" y="1316" width="83" height="132" as="geometry" />
        </mxCell>
        <mxCell id="iIjJSz37-zNfU8AyJNP5-173" value="Clicar em cadastro Storage" style="html=1;overflow=block;blockSpacing=1;whiteSpace=wrap;fontSize=13;align=center;spacing=9;strokeColor=#ff80df;strokeOpacity=100;fillOpacity=100;rounded=1;absoluteArcSize=1;arcSize=12;fillColor=#dfe3e8;strokeWidth=1.5;lucidId=TKVu3g~mCkBQ;container=0;" vertex="1" parent="1">
          <mxGeometry x="135" y="1318" width="83" height="132" as="geometry" />
        </mxCell>
        <mxCell id="iIjJSz37-zNfU8AyJNP5-174" value="Clicar em Cadastros" style="html=1;overflow=block;blockSpacing=1;whiteSpace=wrap;fontSize=13;align=center;spacing=9;strokeColor=#ff80df;strokeOpacity=100;fillOpacity=100;rounded=1;absoluteArcSize=1;arcSize=12;fillColor=#dfe3e8;strokeWidth=1.5;lucidId=TKVugKPUELmh;container=0;" vertex="1" parent="1">
          <mxGeometry x="-75" y="1318" width="83" height="132" as="geometry" />
        </mxCell>
        <mxCell id="iIjJSz37-zNfU8AyJNP5-175" value="Funcionario preenche todos os campos e clica em Cadastrar novo Storage" style="html=1;overflow=block;blockSpacing=1;whiteSpace=wrap;fontSize=13;align=center;spacing=9;strokeColor=#ff80df;strokeOpacity=100;fillOpacity=100;rounded=1;absoluteArcSize=1;arcSize=12;fillColor=#dfe3e8;strokeWidth=1.5;lucidId=TLVueEcK-3IP;container=0;" vertex="1" parent="1">
          <mxGeometry x="315" y="1310" width="83" height="148" as="geometry" />
        </mxCell>
        <mxCell id="iIjJSz37-zNfU8AyJNP5-176" value="Storage já cadastrado?" style="html=1;overflow=block;blockSpacing=1;whiteSpace=wrap;rhombus;fontSize=13;fontColor=#ffffff;align=center;spacing=3.8;strokeColor=#6db1ff;strokeOpacity=100;fillOpacity=100;rounded=1;absoluteArcSize=1;arcSize=12;fillColor=#4c535d;strokeWidth=1.5;lucidId=IMVukuP4WiCF;container=0;" vertex="1" parent="1">
          <mxGeometry x="475" y="1317" width="82" height="131" as="geometry" />
        </mxCell>
        <mxCell id="iIjJSz37-zNfU8AyJNP5-177" value="Cadastrar novo Storage" style="html=1;overflow=block;blockSpacing=1;whiteSpace=wrap;fontSize=13;align=center;spacing=9;strokeColor=#ff80df;strokeOpacity=100;fillOpacity=100;rounded=1;absoluteArcSize=1;arcSize=12;fillColor=#dfe3e8;strokeWidth=1.5;lucidId=IMVuV4y2Wr4b;container=0;" vertex="1" parent="1">
          <mxGeometry x="639" y="1316" width="83" height="132" as="geometry" />
        </mxCell>
        <mxCell id="iIjJSz37-zNfU8AyJNP5-178" value="" style="html=1;jettySize=18;whiteSpace=wrap;fontSize=13;strokeColor=#333333;strokeOpacity=100;strokeWidth=0.8;rounded=1;arcSize=24;edgeStyle=orthogonalEdgeStyle;startArrow=none;endArrow=block;endFill=1;exitX=1.009;exitY=0.5;exitPerimeter=0;entryX=-0.009;entryY=0.488;entryPerimeter=0;lucidId=TKVu0_wFNO7J;" edge="1" parent="1" source="iIjJSz37-zNfU8AyJNP5-172" target="iIjJSz37-zNfU8AyJNP5-174">
          <mxGeometry width="100" height="100" relative="1" as="geometry">
            <Array as="points" />
          </mxGeometry>
        </mxCell>
        <mxCell id="iIjJSz37-zNfU8AyJNP5-179" value="" style="html=1;jettySize=18;whiteSpace=wrap;fontSize=13;strokeColor=#333333;strokeOpacity=100;strokeWidth=0.8;rounded=1;arcSize=24;edgeStyle=orthogonalEdgeStyle;startArrow=none;endArrow=block;endFill=1;exitX=1.009;exitY=0.5;exitPerimeter=0;entryX=-0.009;entryY=0.5;entryPerimeter=0;lucidId=TKVuQf85Eefx;" edge="1" parent="1" source="iIjJSz37-zNfU8AyJNP5-174" target="iIjJSz37-zNfU8AyJNP5-173">
          <mxGeometry width="100" height="100" relative="1" as="geometry">
            <Array as="points" />
          </mxGeometry>
        </mxCell>
        <mxCell id="iIjJSz37-zNfU8AyJNP5-180" value="" style="html=1;jettySize=18;whiteSpace=wrap;fontSize=13;strokeColor=#333333;strokeOpacity=100;strokeWidth=0.8;rounded=1;arcSize=24;edgeStyle=orthogonalEdgeStyle;startArrow=none;endArrow=block;endFill=1;exitX=1.009;exitY=0.5;exitPerimeter=0;entryX=-0.009;entryY=0.5;entryPerimeter=0;lucidId=-LVuaBZoTzxL;" edge="1" parent="1" source="iIjJSz37-zNfU8AyJNP5-173" target="iIjJSz37-zNfU8AyJNP5-175">
          <mxGeometry width="100" height="100" relative="1" as="geometry">
            <Array as="points" />
          </mxGeometry>
        </mxCell>
        <mxCell id="iIjJSz37-zNfU8AyJNP5-181" value="" style="html=1;jettySize=18;whiteSpace=wrap;fontSize=13;strokeColor=#333333;strokeOpacity=100;strokeWidth=0.8;rounded=1;arcSize=24;edgeStyle=orthogonalEdgeStyle;startArrow=none;endArrow=block;endFill=1;exitX=1.009;exitY=0.472;exitPerimeter=0;entryX=0.016;entryY=0.481;entryPerimeter=0;lucidId=~MVuYsn6NPdR;" edge="1" parent="1" source="iIjJSz37-zNfU8AyJNP5-175" target="iIjJSz37-zNfU8AyJNP5-176">
          <mxGeometry width="100" height="100" relative="1" as="geometry">
            <Array as="points" />
          </mxGeometry>
        </mxCell>
        <mxCell id="iIjJSz37-zNfU8AyJNP5-182" value="" style="html=1;jettySize=18;whiteSpace=wrap;fontSize=13;strokeColor=#333333;strokeOpacity=100;strokeWidth=0.8;rounded=1;arcSize=24;edgeStyle=orthogonalEdgeStyle;startArrow=none;endArrow=block;endFill=1;exitX=0.988;exitY=0.5;exitPerimeter=0;entryX=-0.009;entryY=0.578;entryPerimeter=0;lucidId=iNVuGRAHNX2a;" edge="1" parent="1" source="iIjJSz37-zNfU8AyJNP5-176" target="iIjJSz37-zNfU8AyJNP5-177">
          <mxGeometry width="100" height="100" relative="1" as="geometry">
            <Array as="points" />
          </mxGeometry>
        </mxCell>
        <mxCell id="3b2dGS7JebyrkdOw-JS--1" value="&lt;font style=&quot;font-size: 24px;&quot;&gt;Cadastro Empresa&lt;/font&gt;" style="swimlane;whiteSpace=wrap;html=1;fillColor=#666666;startSize=23;" vertex="1" parent="1">
          <mxGeometry x="-820" y="-238" width="1681" height="652" as="geometry" />
        </mxCell>
        <mxCell id="3b2dGS7JebyrkdOw-JS--406" value="" style="edgeStyle=orthogonalEdgeStyle;rounded=0;orthogonalLoop=1;jettySize=auto;html=1;" edge="1" parent="3b2dGS7JebyrkdOw-JS--1" source="3b2dGS7JebyrkdOw-JS--383" target="3b2dGS7JebyrkdOw-JS--384">
          <mxGeometry relative="1" as="geometry" />
        </mxCell>
        <mxCell id="3b2dGS7JebyrkdOw-JS--383" value="&lt;span style=&quot;font-size: 13px;&quot;&gt;Acessar barra lateral&lt;/span&gt;" style="ellipse;whiteSpace=wrap;html=1;aspect=fixed;fillColor=none;" vertex="1" parent="3b2dGS7JebyrkdOw-JS--1">
          <mxGeometry x="29" y="90" width="100" height="100" as="geometry" />
        </mxCell>
        <mxCell id="3b2dGS7JebyrkdOw-JS--407" value="" style="edgeStyle=orthogonalEdgeStyle;rounded=0;orthogonalLoop=1;jettySize=auto;html=1;" edge="1" parent="3b2dGS7JebyrkdOw-JS--1" source="3b2dGS7JebyrkdOw-JS--384" target="3b2dGS7JebyrkdOw-JS--385">
          <mxGeometry relative="1" as="geometry" />
        </mxCell>
        <mxCell id="3b2dGS7JebyrkdOw-JS--384" value="&lt;font style=&quot;font-size: 14px;&quot;&gt;Clicar em Cadastros&lt;/font&gt;" style="whiteSpace=wrap;html=1;aspect=fixed;" vertex="1" parent="3b2dGS7JebyrkdOw-JS--1">
          <mxGeometry x="179" y="70" width="140" height="140" as="geometry" />
        </mxCell>
        <mxCell id="3b2dGS7JebyrkdOw-JS--408" value="" style="edgeStyle=orthogonalEdgeStyle;rounded=0;orthogonalLoop=1;jettySize=auto;html=1;" edge="1" parent="3b2dGS7JebyrkdOw-JS--1" source="3b2dGS7JebyrkdOw-JS--385" target="3b2dGS7JebyrkdOw-JS--386">
          <mxGeometry relative="1" as="geometry" />
        </mxCell>
        <mxCell id="3b2dGS7JebyrkdOw-JS--385" value="&lt;span style=&quot;font-size: 14px;&quot;&gt;Clicar em Empresa&lt;/span&gt;" style="whiteSpace=wrap;html=1;aspect=fixed;" vertex="1" parent="3b2dGS7JebyrkdOw-JS--1">
          <mxGeometry x="367" y="70" width="140" height="140" as="geometry" />
        </mxCell>
        <mxCell id="3b2dGS7JebyrkdOw-JS--409" value="" style="edgeStyle=orthogonalEdgeStyle;rounded=0;orthogonalLoop=1;jettySize=auto;html=1;" edge="1" parent="3b2dGS7JebyrkdOw-JS--1" source="3b2dGS7JebyrkdOw-JS--386" target="3b2dGS7JebyrkdOw-JS--387">
          <mxGeometry relative="1" as="geometry" />
        </mxCell>
        <mxCell id="3b2dGS7JebyrkdOw-JS--386" value="&lt;span style=&quot;font-size: 14px;&quot;&gt;Funcionario preenche todos os campos&lt;/span&gt;" style="whiteSpace=wrap;html=1;aspect=fixed;" vertex="1" parent="3b2dGS7JebyrkdOw-JS--1">
          <mxGeometry x="556" y="70.5" width="141" height="141" as="geometry" />
        </mxCell>
        <mxCell id="3b2dGS7JebyrkdOw-JS--410" value="" style="edgeStyle=orthogonalEdgeStyle;rounded=0;orthogonalLoop=1;jettySize=auto;html=1;" edge="1" parent="3b2dGS7JebyrkdOw-JS--1" source="3b2dGS7JebyrkdOw-JS--387" target="3b2dGS7JebyrkdOw-JS--388">
          <mxGeometry relative="1" as="geometry" />
        </mxCell>
        <mxCell id="3b2dGS7JebyrkdOw-JS--387" value="&lt;span style=&quot;font-size: 14px;&quot;&gt;Clica em Cadastrar Nova Empresa&lt;/span&gt;" style="whiteSpace=wrap;html=1;aspect=fixed;" vertex="1" parent="3b2dGS7JebyrkdOw-JS--1">
          <mxGeometry x="751" y="70.5" width="140" height="140" as="geometry" />
        </mxCell>
        <mxCell id="3b2dGS7JebyrkdOw-JS--413" value="" style="edgeStyle=orthogonalEdgeStyle;rounded=0;orthogonalLoop=1;jettySize=auto;html=1;" edge="1" parent="3b2dGS7JebyrkdOw-JS--1">
          <mxGeometry relative="1" as="geometry">
            <mxPoint x="1010.5999999999999" y="209.9007092198583" as="sourcePoint" />
            <mxPoint x="1010" y="308" as="targetPoint" />
          </mxGeometry>
        </mxCell>
        <mxCell id="3b2dGS7JebyrkdOw-JS--415" value="&lt;font style=&quot;font-size: 14px;&quot;&gt;SIM&lt;/font&gt;" style="edgeLabel;html=1;align=center;verticalAlign=middle;resizable=0;points=[];" vertex="1" connectable="0" parent="3b2dGS7JebyrkdOw-JS--413">
          <mxGeometry x="-0.1874" y="1" relative="1" as="geometry">
            <mxPoint x="-1" y="3" as="offset" />
          </mxGeometry>
        </mxCell>
        <mxCell id="3b2dGS7JebyrkdOw-JS--418" value="" style="edgeStyle=orthogonalEdgeStyle;rounded=0;orthogonalLoop=1;jettySize=auto;html=1;" edge="1" parent="3b2dGS7JebyrkdOw-JS--1" source="3b2dGS7JebyrkdOw-JS--388" target="3b2dGS7JebyrkdOw-JS--417">
          <mxGeometry relative="1" as="geometry" />
        </mxCell>
        <mxCell id="3b2dGS7JebyrkdOw-JS--422" value="&lt;font style=&quot;font-size: 14px;&quot;&gt;NÃO&lt;/font&gt;" style="edgeLabel;html=1;align=center;verticalAlign=middle;resizable=0;points=[];" vertex="1" connectable="0" parent="3b2dGS7JebyrkdOw-JS--418">
          <mxGeometry x="-0.099" y="-1" relative="1" as="geometry">
            <mxPoint as="offset" />
          </mxGeometry>
        </mxCell>
        <mxCell id="3b2dGS7JebyrkdOw-JS--388" value="&lt;span style=&quot;color: rgb(255, 255, 255); font-size: 14px;&quot;&gt;Emprea já cadastrado?&lt;/span&gt;" style="rhombus;whiteSpace=wrap;html=1;fillColor=#666666;" vertex="1" parent="3b2dGS7JebyrkdOw-JS--1">
          <mxGeometry x="940" y="70" width="141" height="140" as="geometry" />
        </mxCell>
        <mxCell id="3b2dGS7JebyrkdOw-JS--412" style="edgeStyle=orthogonalEdgeStyle;rounded=0;orthogonalLoop=1;jettySize=auto;html=1;exitX=0;exitY=0.5;exitDx=0;exitDy=0;entryX=0.5;entryY=1;entryDx=0;entryDy=0;" edge="1" parent="3b2dGS7JebyrkdOw-JS--1" source="3b2dGS7JebyrkdOw-JS--411" target="3b2dGS7JebyrkdOw-JS--387">
          <mxGeometry relative="1" as="geometry" />
        </mxCell>
        <mxCell id="3b2dGS7JebyrkdOw-JS--411" value="&lt;span style=&quot;font-size: 14px;&quot;&gt;Informa Empresa já cadastrada&lt;/span&gt;" style="whiteSpace=wrap;html=1;aspect=fixed;" vertex="1" parent="3b2dGS7JebyrkdOw-JS--1">
          <mxGeometry x="940" y="308" width="140" height="140" as="geometry" />
        </mxCell>
        <mxCell id="3b2dGS7JebyrkdOw-JS--417" value="&lt;span style=&quot;font-size: 14px;&quot;&gt;Registrar Nova Empresa&lt;/span&gt;" style="whiteSpace=wrap;html=1;aspect=fixed;" vertex="1" parent="3b2dGS7JebyrkdOw-JS--1">
          <mxGeometry x="1180" y="71.5" width="140" height="140" as="geometry" />
        </mxCell>
        <mxCell id="3b2dGS7JebyrkdOw-JS--4" value="Funcionario preenche todos os campos e clica em Cadastrar nova empresa" style="html=1;overflow=block;blockSpacing=1;whiteSpace=wrap;fontSize=13;align=center;spacing=9;strokeColor=#666666;strokeOpacity=100;fillOpacity=100;rounded=1;absoluteArcSize=1;arcSize=12;fillColor=#f5f5f5;strokeWidth=1.5;lucidId=sHVur5LiFv-o;fontColor=#333333;" vertex="1" parent="1">
          <mxGeometry x="454" y="130" width="83" height="148" as="geometry" />
        </mxCell>
        <mxCell id="3b2dGS7JebyrkdOw-JS--5" value="Empresa já cadastrada?" style="html=1;overflow=block;blockSpacing=1;whiteSpace=wrap;rhombus;fontSize=13;align=center;spacing=3.8;strokeColor=#6db1ff;strokeOpacity=100;fillOpacity=100;rounded=1;absoluteArcSize=1;arcSize=12;fillColor=#4c535d;strokeWidth=1.5;lucidId=sHVuFYI7WWza;" vertex="1" parent="1">
          <mxGeometry x="614" y="139" width="82" height="131" as="geometry" />
        </mxCell>
        <mxCell id="3b2dGS7JebyrkdOw-JS--6" value="Informa empresa já cadastrada" style="html=1;overflow=block;blockSpacing=1;whiteSpace=wrap;fontSize=13;align=center;spacing=9;strokeColor=#666666;strokeOpacity=100;fillOpacity=100;rounded=1;absoluteArcSize=1;arcSize=12;fillColor=#f5f5f5;strokeWidth=1.5;lucidId=sHVuWVF60bVN;fontColor=#333333;" vertex="1" parent="1">
          <mxGeometry x="688" y="436" width="83" height="132" as="geometry" />
        </mxCell>
        <mxCell id="3b2dGS7JebyrkdOw-JS--7" value="Registrar nova empresa" style="html=1;overflow=block;blockSpacing=1;whiteSpace=wrap;fontSize=13;align=center;spacing=9;strokeColor=#666666;strokeOpacity=100;fillOpacity=100;rounded=1;absoluteArcSize=1;arcSize=12;fillColor=#f5f5f5;strokeWidth=1.5;lucidId=sHVusqCLus73;fontColor=#333333;" vertex="1" parent="1">
          <mxGeometry x="778" y="139" width="83" height="132" as="geometry" />
        </mxCell>
        <mxCell id="3b2dGS7JebyrkdOw-JS--8" value="Fim" style="html=1;overflow=block;blockSpacing=1;whiteSpace=wrap;fontSize=13;align=center;spacing=3.8;strokeColor=#666666;strokeOpacity=100;fillOpacity=100;rounded=1;absoluteArcSize=1;arcSize=12;fillColor=#f5f5f5;strokeWidth=1.5;lucidId=sHVubvwy6oM8;fontColor=#333333;" vertex="1" parent="1">
          <mxGeometry x="942" y="172" width="66" height="65" as="geometry" />
        </mxCell>
        <mxCell id="3b2dGS7JebyrkdOw-JS--13" value="" style="html=1;jettySize=18;whiteSpace=wrap;fontSize=13;strokeColor=#333333;strokeOpacity=100;strokeWidth=0.8;rounded=1;arcSize=24;edgeStyle=orthogonalEdgeStyle;startArrow=none;endArrow=block;endFill=1;exitX=1.009;exitY=0.5;exitPerimeter=0;entryX=0.012;entryY=0.494;entryPerimeter=0;lucidId=sHVuQ8OTVjqc;" edge="1" parent="1" source="3b2dGS7JebyrkdOw-JS--4" target="3b2dGS7JebyrkdOw-JS--5">
          <mxGeometry width="100" height="100" relative="1" as="geometry">
            <Array as="points" />
          </mxGeometry>
        </mxCell>
        <mxCell id="3b2dGS7JebyrkdOw-JS--14" value="" style="html=1;jettySize=18;whiteSpace=wrap;fontSize=13;strokeColor=#333333;strokeOpacity=100;strokeWidth=0.8;rounded=1;arcSize=24;edgeStyle=orthogonalEdgeStyle;startArrow=none;endArrow=block;endFill=1;exitX=0.5;exitY=0.98;exitPerimeter=0;entryX=-0.009;entryY=0.5;entryPerimeter=0;lucidId=sHVuJ0cSf0pG;" edge="1" parent="1" source="3b2dGS7JebyrkdOw-JS--5" target="3b2dGS7JebyrkdOw-JS--6">
          <mxGeometry width="100" height="100" relative="1" as="geometry">
            <Array as="points" />
          </mxGeometry>
        </mxCell>
        <mxCell id="3b2dGS7JebyrkdOw-JS--15" value="Sim" style="text;html=1;resizable=0;labelBackgroundColor=default;align=center;verticalAlign=middle;fontColor=#666666;fontSize=13;" vertex="1" parent="3b2dGS7JebyrkdOw-JS--14">
          <mxGeometry relative="1" as="geometry" />
        </mxCell>
        <mxCell id="3b2dGS7JebyrkdOw-JS--16" value="" style="html=1;jettySize=18;whiteSpace=wrap;fontSize=13;strokeColor=#333333;strokeOpacity=100;strokeWidth=0.8;rounded=1;arcSize=24;edgeStyle=orthogonalEdgeStyle;startArrow=none;endArrow=block;endFill=1;exitX=1.009;exitY=0.5;exitPerimeter=0;entryX=0.5;entryY=1.005;entryPerimeter=0;lucidId=sHVuIRerCfpc;" edge="1" parent="1" source="3b2dGS7JebyrkdOw-JS--6" target="3b2dGS7JebyrkdOw-JS--4">
          <mxGeometry width="100" height="100" relative="1" as="geometry">
            <Array as="points">
              <mxPoint x="811" y="504" />
              <mxPoint x="811" y="650" />
              <mxPoint x="495" y="650" />
            </Array>
          </mxGeometry>
        </mxCell>
        <mxCell id="3b2dGS7JebyrkdOw-JS--17" value="" style="html=1;jettySize=18;whiteSpace=wrap;fontSize=13;strokeColor=#333333;strokeOpacity=100;strokeWidth=0.8;rounded=1;arcSize=24;edgeStyle=orthogonalEdgeStyle;startArrow=none;endArrow=block;endFill=1;exitX=0.988;exitY=0.5;exitPerimeter=0;entryX=-0.009;entryY=0.5;entryPerimeter=0;lucidId=sHVuF~HN72l.;" edge="1" parent="1" source="3b2dGS7JebyrkdOw-JS--5" target="3b2dGS7JebyrkdOw-JS--7">
          <mxGeometry width="100" height="100" relative="1" as="geometry">
            <Array as="points" />
          </mxGeometry>
        </mxCell>
        <mxCell id="3b2dGS7JebyrkdOw-JS--18" value="Não" style="text;html=1;resizable=0;labelBackgroundColor=default;align=center;verticalAlign=middle;fontColor=#666666;fontSize=13;" vertex="1" parent="3b2dGS7JebyrkdOw-JS--17">
          <mxGeometry relative="1" as="geometry" />
        </mxCell>
        <mxCell id="3b2dGS7JebyrkdOw-JS--19" value="" style="html=1;jettySize=18;whiteSpace=wrap;fontSize=13;strokeColor=#333333;strokeOpacity=100;strokeWidth=0.8;rounded=1;arcSize=24;edgeStyle=orthogonalEdgeStyle;startArrow=none;endArrow=block;endFill=1;exitX=1.009;exitY=0.5;exitPerimeter=0;entryX=-0.011;entryY=0.5;entryPerimeter=0;lucidId=sHVuEh9GTJNP;" edge="1" parent="1" source="3b2dGS7JebyrkdOw-JS--7" target="3b2dGS7JebyrkdOw-JS--8">
          <mxGeometry width="100" height="100" relative="1" as="geometry">
            <Array as="points" />
          </mxGeometry>
        </mxCell>
      </root>
    </mxGraphModel>
  </diagram>
  <diagram id="NJI4u2zgdCP2I3n21OJD" name="Página-2">
    <mxGraphModel dx="2412" dy="780" grid="1" gridSize="10" guides="1" tooltips="1" connect="1" arrows="1" fold="1" page="1" pageScale="1" pageWidth="827" pageHeight="1169" math="0" shadow="0">
      <root>
        <mxCell id="0" />
        <mxCell id="1" parent="0" />
        <mxCell id="4FQ50ClIXps-ypR4PjHm-1" value="Informa Identidade já cadastrada" style="html=1;overflow=block;blockSpacing=1;whiteSpace=wrap;fontSize=13;align=center;spacing=9;strokeColor=#666666;strokeOpacity=100;fillOpacity=100;rounded=1;absoluteArcSize=1;arcSize=12;fillColor=#f5f5f5;strokeWidth=1.5;lucidId=IMVuKGuR~jhK;container=0;fontColor=#333333;" vertex="1" parent="1">
          <mxGeometry x="486" y="1710" width="83" height="132" as="geometry" />
        </mxCell>
        <mxCell id="4FQ50ClIXps-ypR4PjHm-5" value="" style="html=1;jettySize=18;whiteSpace=wrap;fontSize=13;strokeColor=#333333;strokeOpacity=100;strokeWidth=0.8;rounded=1;arcSize=24;edgeStyle=orthogonalEdgeStyle;startArrow=none;endArrow=block;endFill=1;exitX=0.5;exitY=0.98;exitPerimeter=0;lucidId=IMVuoLYOVCrK;" edge="1" parent="1" source="4FQ50ClIXps-ypR4PjHm-13" target="4FQ50ClIXps-ypR4PjHm-1">
          <mxGeometry width="100" height="100" relative="1" as="geometry">
            <Array as="points" />
          </mxGeometry>
        </mxCell>
        <mxCell id="4FQ50ClIXps-ypR4PjHm-6" value="Sim" style="text;html=1;resizable=0;labelBackgroundColor=default;align=center;verticalAlign=middle;fontColor=#666666;fontSize=13;container=0;" vertex="1" parent="4FQ50ClIXps-ypR4PjHm-5">
          <mxGeometry relative="1" as="geometry">
            <mxPoint y="81" as="offset" />
          </mxGeometry>
        </mxCell>
        <mxCell id="4FQ50ClIXps-ypR4PjHm-7" value="" style="html=1;jettySize=18;whiteSpace=wrap;fontSize=13;strokeColor=#333333;strokeOpacity=100;strokeWidth=0.8;rounded=1;arcSize=24;edgeStyle=orthogonalEdgeStyle;startArrow=none;endArrow=block;endFill=1;exitX=1;exitY=0.5;entryX=-0.009;entryY=0.531;entryPerimeter=0;lucidId=TKVuo6z7ys-k;exitDx=0;exitDy=0;" edge="1" parent="1" source="0EA6MbTcyLA7fgF79G77-1" target="4FQ50ClIXps-ypR4PjHm-9">
          <mxGeometry width="100" height="100" relative="1" as="geometry">
            <Array as="points" />
            <mxPoint x="-544.2740000000001" y="1386.5" as="sourcePoint" />
          </mxGeometry>
        </mxCell>
        <mxCell id="4FQ50ClIXps-ypR4PjHm-8" value="" style="html=1;jettySize=18;whiteSpace=wrap;fontSize=13;strokeColor=#333333;strokeOpacity=100;strokeWidth=0.8;rounded=1;arcSize=24;edgeStyle=orthogonalEdgeStyle;startArrow=none;endArrow=block;endFill=1;exitX=1.009;exitY=0.5;exitPerimeter=0;entryX=0;entryY=0.5;lucidId=pNVu_cprBSpg;entryDx=0;entryDy=0;" edge="1" parent="1" source="4FQ50ClIXps-ypR4PjHm-14" target="0EA6MbTcyLA7fgF79G77-3">
          <mxGeometry width="100" height="100" relative="1" as="geometry">
            <Array as="points" />
            <mxPoint x="954.2739999999999" y="1382.565" as="targetPoint" />
          </mxGeometry>
        </mxCell>
        <mxCell id="4FQ50ClIXps-ypR4PjHm-9" value="Acessar barra lateral" style="html=1;overflow=block;blockSpacing=1;whiteSpace=wrap;fontSize=13;align=center;spacing=9;strokeColor=#666666;strokeOpacity=100;fillOpacity=100;rounded=1;absoluteArcSize=1;arcSize=12;fillColor=#f5f5f5;strokeWidth=1.5;lucidId=TKVu174VIa4P;container=0;fontColor=#333333;" vertex="1" parent="1">
          <mxGeometry x="-475" y="1314" width="83" height="132" as="geometry" />
        </mxCell>
        <mxCell id="4FQ50ClIXps-ypR4PjHm-10" value="Clicar em Funcionario" style="html=1;overflow=block;blockSpacing=1;whiteSpace=wrap;fontSize=13;align=center;spacing=9;strokeColor=#666666;strokeOpacity=100;fillOpacity=100;rounded=1;absoluteArcSize=1;arcSize=12;fillColor=#f5f5f5;strokeWidth=1.5;lucidId=TKVu3g~mCkBQ;container=0;fontColor=#333333;" vertex="1" parent="1">
          <mxGeometry x="-185" y="1314" width="83" height="132" as="geometry" />
        </mxCell>
        <mxCell id="4FQ50ClIXps-ypR4PjHm-11" value="Clicar em Consultar" style="html=1;overflow=block;blockSpacing=1;whiteSpace=wrap;fontSize=13;align=center;spacing=9;strokeColor=#666666;strokeOpacity=100;fillOpacity=100;rounded=1;absoluteArcSize=1;arcSize=12;fillColor=#f5f5f5;strokeWidth=1.5;lucidId=TKVugKPUELmh;container=0;fontColor=#333333;" vertex="1" parent="1">
          <mxGeometry x="-350" y="1314" width="83" height="132" as="geometry" />
        </mxCell>
        <mxCell id="4FQ50ClIXps-ypR4PjHm-12" value="Funcionario Seleciona campo editar" style="html=1;overflow=block;blockSpacing=1;whiteSpace=wrap;fontSize=13;align=center;spacing=9;strokeColor=#666666;strokeOpacity=100;fillOpacity=100;rounded=1;absoluteArcSize=1;arcSize=12;fillColor=#f5f5f5;strokeWidth=1.5;lucidId=TLVueEcK-3IP;container=0;fontColor=#333333;" vertex="1" parent="1">
          <mxGeometry x="-15" y="1306.5" width="83" height="148" as="geometry" />
        </mxCell>
        <mxCell id="4FQ50ClIXps-ypR4PjHm-13" value="Dados de identidade já cadastrados?" style="html=1;overflow=block;blockSpacing=1;whiteSpace=wrap;rhombus;fontSize=13;fontColor=#ffffff;align=center;spacing=3.8;strokeColor=#6db1ff;strokeOpacity=100;fillOpacity=100;rounded=1;absoluteArcSize=1;arcSize=12;fillColor=#4c535d;strokeWidth=1.5;lucidId=IMVukuP4WiCF;container=0;" vertex="1" parent="1">
          <mxGeometry x="475" y="1317" width="105" height="133" as="geometry" />
        </mxCell>
        <mxCell id="4FQ50ClIXps-ypR4PjHm-14" value="Realiza alteração no funcionario" style="html=1;overflow=block;blockSpacing=1;whiteSpace=wrap;fontSize=13;align=center;spacing=9;strokeColor=#666666;strokeOpacity=100;fillOpacity=100;rounded=1;absoluteArcSize=1;arcSize=12;fillColor=#f5f5f5;strokeWidth=1.5;lucidId=IMVuV4y2Wr4b;container=0;fontColor=#333333;" vertex="1" parent="1">
          <mxGeometry x="790" y="1316" width="83" height="132" as="geometry" />
        </mxCell>
        <mxCell id="4FQ50ClIXps-ypR4PjHm-15" value="" style="html=1;jettySize=18;whiteSpace=wrap;fontSize=13;strokeColor=#333333;strokeOpacity=100;strokeWidth=0.8;rounded=1;arcSize=24;edgeStyle=orthogonalEdgeStyle;startArrow=none;endArrow=block;endFill=1;exitX=1.009;exitY=0.5;exitPerimeter=0;entryX=-0.009;entryY=0.488;entryPerimeter=0;lucidId=TKVu0_wFNO7J;" edge="1" parent="1" source="4FQ50ClIXps-ypR4PjHm-9" target="4FQ50ClIXps-ypR4PjHm-11">
          <mxGeometry width="100" height="100" relative="1" as="geometry">
            <Array as="points" />
          </mxGeometry>
        </mxCell>
        <mxCell id="4FQ50ClIXps-ypR4PjHm-16" value="" style="html=1;jettySize=18;whiteSpace=wrap;fontSize=13;strokeColor=#666666;strokeOpacity=100;strokeWidth=0.8;rounded=1;arcSize=24;edgeStyle=orthogonalEdgeStyle;startArrow=none;endArrow=block;endFill=1;exitX=1.009;exitY=0.5;exitPerimeter=0;entryX=-0.009;entryY=0.5;entryPerimeter=0;lucidId=TKVuQf85Eefx;fillColor=#f5f5f5;" edge="1" parent="1" source="4FQ50ClIXps-ypR4PjHm-11" target="4FQ50ClIXps-ypR4PjHm-10">
          <mxGeometry width="100" height="100" relative="1" as="geometry">
            <Array as="points" />
          </mxGeometry>
        </mxCell>
        <mxCell id="4FQ50ClIXps-ypR4PjHm-17" value="" style="html=1;jettySize=18;whiteSpace=wrap;fontSize=13;strokeColor=#666666;strokeOpacity=100;strokeWidth=0.8;rounded=1;arcSize=24;edgeStyle=orthogonalEdgeStyle;startArrow=none;endArrow=block;endFill=1;exitX=1.009;exitY=0.5;exitPerimeter=0;entryX=-0.009;entryY=0.5;entryPerimeter=0;lucidId=-LVuaBZoTzxL;fillColor=#f5f5f5;" edge="1" parent="1" source="4FQ50ClIXps-ypR4PjHm-10" target="4FQ50ClIXps-ypR4PjHm-12">
          <mxGeometry width="100" height="100" relative="1" as="geometry">
            <Array as="points" />
          </mxGeometry>
        </mxCell>
        <mxCell id="4FQ50ClIXps-ypR4PjHm-18" value="" style="html=1;jettySize=18;whiteSpace=wrap;fontSize=13;strokeColor=#333333;strokeOpacity=100;strokeWidth=0.8;rounded=1;arcSize=24;edgeStyle=orthogonalEdgeStyle;startArrow=none;endArrow=block;endFill=1;exitX=1.009;exitY=0.472;exitPerimeter=0;entryX=0.016;entryY=0.481;entryPerimeter=0;lucidId=~MVuYsn6NPdR;" edge="1" parent="1" source="e1cLH0yN7D-U8VaVQK-6-30" target="4FQ50ClIXps-ypR4PjHm-13">
          <mxGeometry width="100" height="100" relative="1" as="geometry">
            <Array as="points" />
          </mxGeometry>
        </mxCell>
        <mxCell id="4FQ50ClIXps-ypR4PjHm-19" value="" style="html=1;jettySize=18;whiteSpace=wrap;fontSize=13;strokeColor=#333333;strokeOpacity=100;strokeWidth=0.8;rounded=1;arcSize=24;edgeStyle=orthogonalEdgeStyle;startArrow=none;endArrow=block;endFill=1;exitX=0.988;exitY=0.5;exitPerimeter=0;lucidId=iNVuGRAHNX2a;entryX=0;entryY=0.5;entryDx=0;entryDy=0;" edge="1" parent="1" source="0EA6MbTcyLA7fgF79G77-7" target="0EA6MbTcyLA7fgF79G77-12">
          <mxGeometry width="100" height="100" relative="1" as="geometry">
            <Array as="points" />
            <mxPoint x="638" y="1384" as="targetPoint" />
          </mxGeometry>
        </mxCell>
        <mxCell id="0EA6MbTcyLA7fgF79G77-1" value="Inicio" style="ellipse;whiteSpace=wrap;html=1;aspect=fixed;" vertex="1" parent="1">
          <mxGeometry x="-618" y="1344" width="80" height="80" as="geometry" />
        </mxCell>
        <mxCell id="0EA6MbTcyLA7fgF79G77-3" value="Fim" style="ellipse;whiteSpace=wrap;html=1;aspect=fixed;" vertex="1" parent="1">
          <mxGeometry x="961" y="1342" width="80" height="80" as="geometry" />
        </mxCell>
        <mxCell id="e1cLH0yN7D-U8VaVQK-6-35" style="edgeStyle=orthogonalEdgeStyle;rounded=0;orthogonalLoop=1;jettySize=auto;html=1;exitX=1;exitY=0.5;exitDx=0;exitDy=0;entryX=0;entryY=0.5;entryDx=0;entryDy=0;" edge="1" parent="1" source="0EA6MbTcyLA7fgF79G77-6" target="e1cLH0yN7D-U8VaVQK-6-30">
          <mxGeometry relative="1" as="geometry" />
        </mxCell>
        <mxCell id="0EA6MbTcyLA7fgF79G77-6" value="Funcionario preenche informações" style="html=1;overflow=block;blockSpacing=1;whiteSpace=wrap;fontSize=13;align=center;spacing=9;strokeColor=#666666;strokeOpacity=100;fillOpacity=100;rounded=1;absoluteArcSize=1;arcSize=12;fillColor=#f5f5f5;strokeWidth=1.5;lucidId=TLVueEcK-3IP;container=0;fontColor=#333333;" vertex="1" parent="1">
          <mxGeometry x="135" y="1306.5" width="83" height="148" as="geometry" />
        </mxCell>
        <mxCell id="0EA6MbTcyLA7fgF79G77-8" value="" style="html=1;jettySize=18;whiteSpace=wrap;fontSize=13;strokeColor=#333333;strokeOpacity=100;strokeWidth=0.8;rounded=1;arcSize=24;edgeStyle=orthogonalEdgeStyle;startArrow=none;endArrow=block;endFill=1;exitX=0.988;exitY=0.5;exitPerimeter=0;entryX=-0.009;entryY=0.578;entryPerimeter=0;lucidId=iNVuGRAHNX2a;" edge="1" parent="1" source="4FQ50ClIXps-ypR4PjHm-13" target="0EA6MbTcyLA7fgF79G77-7">
          <mxGeometry width="100" height="100" relative="1" as="geometry">
            <Array as="points" />
            <mxPoint x="579" y="1384" as="sourcePoint" />
            <mxPoint x="638" y="1392" as="targetPoint" />
          </mxGeometry>
        </mxCell>
        <mxCell id="0EA6MbTcyLA7fgF79G77-7" value="Não" style="text;html=1;resizable=0;labelBackgroundColor=default;align=center;verticalAlign=middle;fontColor=#666666;fontSize=13;container=0;" vertex="1" parent="1">
          <mxGeometry x="600.0043457854624" y="1383.995788659053" as="geometry">
            <mxPoint x="-4" y="-4" as="offset" />
          </mxGeometry>
        </mxCell>
        <mxCell id="0EA6MbTcyLA7fgF79G77-13" style="edgeStyle=orthogonalEdgeStyle;rounded=0;orthogonalLoop=1;jettySize=auto;html=1;exitX=1;exitY=0.5;exitDx=0;exitDy=0;" edge="1" parent="1" source="0EA6MbTcyLA7fgF79G77-14" target="4FQ50ClIXps-ypR4PjHm-14">
          <mxGeometry relative="1" as="geometry" />
        </mxCell>
        <mxCell id="0EA6MbTcyLA7fgF79G77-17" value="" style="edgeStyle=orthogonalEdgeStyle;rounded=0;orthogonalLoop=1;jettySize=auto;html=1;" edge="1" parent="1" source="0EA6MbTcyLA7fgF79G77-12" target="0EA6MbTcyLA7fgF79G77-16">
          <mxGeometry relative="1" as="geometry" />
        </mxCell>
        <mxCell id="0EA6MbTcyLA7fgF79G77-12" value="Senhas coincidem?" style="html=1;overflow=block;blockSpacing=1;whiteSpace=wrap;rhombus;fontSize=13;fontColor=#ffffff;align=center;spacing=3.8;strokeColor=#6db1ff;strokeOpacity=100;fillOpacity=100;rounded=1;absoluteArcSize=1;arcSize=12;fillColor=#4c535d;strokeWidth=1.5;lucidId=IMVukuP4WiCF;container=0;" vertex="1" parent="1">
          <mxGeometry x="650" y="1314" width="105" height="133" as="geometry" />
        </mxCell>
        <mxCell id="0EA6MbTcyLA7fgF79G77-15" value="" style="edgeStyle=orthogonalEdgeStyle;rounded=0;orthogonalLoop=1;jettySize=auto;html=1;exitX=1;exitY=0.5;exitDx=0;exitDy=0;entryX=0;entryY=0.5;entryDx=0;entryDy=0;" edge="1" parent="1" source="0EA6MbTcyLA7fgF79G77-12" target="0EA6MbTcyLA7fgF79G77-14">
          <mxGeometry relative="1" as="geometry">
            <mxPoint x="755" y="1381" as="sourcePoint" />
            <mxPoint x="790" y="1382" as="targetPoint" />
          </mxGeometry>
        </mxCell>
        <mxCell id="0EA6MbTcyLA7fgF79G77-14" value="Sim" style="text;html=1;resizable=0;labelBackgroundColor=default;align=center;verticalAlign=middle;fontColor=#666666;fontSize=13;container=0;" vertex="1" parent="1">
          <mxGeometry x="769.9981701353711" y="1379.996955966782" as="geometry" />
        </mxCell>
        <mxCell id="0EA6MbTcyLA7fgF79G77-18" style="edgeStyle=orthogonalEdgeStyle;rounded=0;orthogonalLoop=1;jettySize=auto;html=1;entryX=0.75;entryY=1;entryDx=0;entryDy=0;exitX=-0.003;exitY=0.886;exitDx=0;exitDy=0;exitPerimeter=0;" edge="1" parent="1" source="0EA6MbTcyLA7fgF79G77-16" target="0EA6MbTcyLA7fgF79G77-6">
          <mxGeometry relative="1" as="geometry">
            <mxPoint x="702.5" y="1952.608695652174" as="targetPoint" />
          </mxGeometry>
        </mxCell>
        <mxCell id="0EA6MbTcyLA7fgF79G77-16" value="Senhas não coincidem" style="html=1;overflow=block;blockSpacing=1;whiteSpace=wrap;fontSize=13;align=center;spacing=9;strokeColor=#666666;strokeOpacity=100;fillOpacity=100;rounded=1;absoluteArcSize=1;arcSize=12;fillColor=#f5f5f5;strokeWidth=1.5;lucidId=TLVueEcK-3IP;container=0;fontColor=#333333;" vertex="1" parent="1">
          <mxGeometry x="661" y="1490" width="83" height="150" as="geometry" />
        </mxCell>
        <mxCell id="0EA6MbTcyLA7fgF79G77-19" style="edgeStyle=orthogonalEdgeStyle;rounded=0;orthogonalLoop=1;jettySize=auto;html=1;entryX=0.135;entryY=0.99;entryDx=0;entryDy=0;entryPerimeter=0;" edge="1" parent="1" source="4FQ50ClIXps-ypR4PjHm-1" target="0EA6MbTcyLA7fgF79G77-6">
          <mxGeometry relative="1" as="geometry" />
        </mxCell>
        <mxCell id="e1cLH0yN7D-U8VaVQK-6-1" value="Informa Identidade já cadastrada" style="html=1;overflow=block;blockSpacing=1;whiteSpace=wrap;fontSize=13;align=center;spacing=9;strokeColor=#666666;strokeOpacity=100;fillOpacity=100;rounded=1;absoluteArcSize=1;arcSize=12;fillColor=#f5f5f5;strokeWidth=1.5;lucidId=IMVuKGuR~jhK;container=0;fontColor=#333333;" vertex="1" parent="1">
          <mxGeometry x="506" y="2301.5" width="83" height="132" as="geometry" />
        </mxCell>
        <mxCell id="e1cLH0yN7D-U8VaVQK-6-2" value="" style="html=1;jettySize=18;whiteSpace=wrap;fontSize=13;strokeColor=#333333;strokeOpacity=100;strokeWidth=0.8;rounded=1;arcSize=24;edgeStyle=orthogonalEdgeStyle;startArrow=none;endArrow=block;endFill=1;exitX=0.5;exitY=0.98;exitPerimeter=0;lucidId=IMVuoLYOVCrK;" edge="1" parent="1" source="e1cLH0yN7D-U8VaVQK-6-10" target="e1cLH0yN7D-U8VaVQK-6-1">
          <mxGeometry width="100" height="100" relative="1" as="geometry">
            <Array as="points" />
          </mxGeometry>
        </mxCell>
        <mxCell id="e1cLH0yN7D-U8VaVQK-6-3" value="Sim" style="text;html=1;resizable=0;labelBackgroundColor=default;align=center;verticalAlign=middle;fontColor=#666666;fontSize=13;container=0;" vertex="1" parent="e1cLH0yN7D-U8VaVQK-6-2">
          <mxGeometry relative="1" as="geometry">
            <mxPoint y="81" as="offset" />
          </mxGeometry>
        </mxCell>
        <mxCell id="e1cLH0yN7D-U8VaVQK-6-4" value="" style="html=1;jettySize=18;whiteSpace=wrap;fontSize=13;strokeColor=#333333;strokeOpacity=100;strokeWidth=0.8;rounded=1;arcSize=24;edgeStyle=orthogonalEdgeStyle;startArrow=none;endArrow=block;endFill=1;exitX=1;exitY=0.5;entryX=-0.009;entryY=0.531;entryPerimeter=0;lucidId=TKVuo6z7ys-k;exitDx=0;exitDy=0;" edge="1" parent="1" source="e1cLH0yN7D-U8VaVQK-6-17" target="e1cLH0yN7D-U8VaVQK-6-6">
          <mxGeometry width="100" height="100" relative="1" as="geometry">
            <Array as="points" />
            <mxPoint x="-524.2740000000001" y="1978" as="sourcePoint" />
          </mxGeometry>
        </mxCell>
        <mxCell id="e1cLH0yN7D-U8VaVQK-6-5" value="" style="html=1;jettySize=18;whiteSpace=wrap;fontSize=13;strokeColor=#333333;strokeOpacity=100;strokeWidth=0.8;rounded=1;arcSize=24;edgeStyle=orthogonalEdgeStyle;startArrow=none;endArrow=block;endFill=1;exitX=1.009;exitY=0.5;exitPerimeter=0;entryX=0;entryY=0.5;lucidId=pNVu_cprBSpg;entryDx=0;entryDy=0;" edge="1" parent="1" source="e1cLH0yN7D-U8VaVQK-6-11" target="e1cLH0yN7D-U8VaVQK-6-18">
          <mxGeometry width="100" height="100" relative="1" as="geometry">
            <Array as="points" />
            <mxPoint x="974.2739999999999" y="1974.065" as="targetPoint" />
          </mxGeometry>
        </mxCell>
        <mxCell id="e1cLH0yN7D-U8VaVQK-6-6" value="Acessar barra lateral" style="html=1;overflow=block;blockSpacing=1;whiteSpace=wrap;fontSize=13;align=center;spacing=9;strokeColor=#666666;strokeOpacity=100;fillOpacity=100;rounded=1;absoluteArcSize=1;arcSize=12;fillColor=#f5f5f5;strokeWidth=1.5;lucidId=TKVu174VIa4P;container=0;fontColor=#333333;" vertex="1" parent="1">
          <mxGeometry x="-380" y="1905.5" width="83" height="132" as="geometry" />
        </mxCell>
        <mxCell id="e1cLH0yN7D-U8VaVQK-6-7" value="Clicar em Funcionario" style="html=1;overflow=block;blockSpacing=1;whiteSpace=wrap;fontSize=13;align=center;spacing=9;strokeColor=#666666;strokeOpacity=100;fillOpacity=100;rounded=1;absoluteArcSize=1;arcSize=12;fillColor=#f5f5f5;strokeWidth=1.5;lucidId=TKVu3g~mCkBQ;container=0;fontColor=#333333;" vertex="1" parent="1">
          <mxGeometry x="40" y="1907.5" width="83" height="132" as="geometry" />
        </mxCell>
        <mxCell id="e1cLH0yN7D-U8VaVQK-6-8" value="Clicar em Consultar" style="html=1;overflow=block;blockSpacing=1;whiteSpace=wrap;fontSize=13;align=center;spacing=9;strokeColor=#666666;strokeOpacity=100;fillOpacity=100;rounded=1;absoluteArcSize=1;arcSize=12;fillColor=#f5f5f5;strokeWidth=1.5;lucidId=TKVugKPUELmh;container=0;fontColor=#333333;" vertex="1" parent="1">
          <mxGeometry x="-170" y="1907.5" width="83" height="132" as="geometry" />
        </mxCell>
        <mxCell id="e1cLH0yN7D-U8VaVQK-6-9" value="Funcionario Seleciona campo Excluir" style="html=1;overflow=block;blockSpacing=1;whiteSpace=wrap;fontSize=13;align=center;spacing=9;strokeColor=#666666;strokeOpacity=100;fillOpacity=100;rounded=1;absoluteArcSize=1;arcSize=12;fillColor=#f5f5f5;strokeWidth=1.5;lucidId=TLVueEcK-3IP;container=0;fontColor=#333333;" vertex="1" parent="1">
          <mxGeometry x="210" y="1900" width="83" height="148" as="geometry" />
        </mxCell>
        <mxCell id="e1cLH0yN7D-U8VaVQK-6-10" value="Dados de identidade já cadastrados?" style="html=1;overflow=block;blockSpacing=1;whiteSpace=wrap;rhombus;fontSize=13;fontColor=#ffffff;align=center;spacing=3.8;strokeColor=#6db1ff;strokeOpacity=100;fillOpacity=100;rounded=1;absoluteArcSize=1;arcSize=12;fillColor=#4c535d;strokeWidth=1.5;lucidId=IMVukuP4WiCF;container=0;" vertex="1" parent="1">
          <mxGeometry x="495" y="1908.5" width="105" height="133" as="geometry" />
        </mxCell>
        <mxCell id="e1cLH0yN7D-U8VaVQK-6-11" value="Realiza alteração no funcionario" style="html=1;overflow=block;blockSpacing=1;whiteSpace=wrap;fontSize=13;align=center;spacing=9;strokeColor=#666666;strokeOpacity=100;fillOpacity=100;rounded=1;absoluteArcSize=1;arcSize=12;fillColor=#f5f5f5;strokeWidth=1.5;lucidId=IMVuV4y2Wr4b;container=0;fontColor=#333333;" vertex="1" parent="1">
          <mxGeometry x="810" y="1907.5" width="83" height="132" as="geometry" />
        </mxCell>
        <mxCell id="e1cLH0yN7D-U8VaVQK-6-12" value="" style="html=1;jettySize=18;whiteSpace=wrap;fontSize=13;strokeColor=#333333;strokeOpacity=100;strokeWidth=0.8;rounded=1;arcSize=24;edgeStyle=orthogonalEdgeStyle;startArrow=none;endArrow=block;endFill=1;exitX=1.009;exitY=0.5;exitPerimeter=0;entryX=-0.009;entryY=0.488;entryPerimeter=0;lucidId=TKVu0_wFNO7J;" edge="1" parent="1" source="e1cLH0yN7D-U8VaVQK-6-6" target="e1cLH0yN7D-U8VaVQK-6-8">
          <mxGeometry width="100" height="100" relative="1" as="geometry">
            <Array as="points" />
          </mxGeometry>
        </mxCell>
        <mxCell id="e1cLH0yN7D-U8VaVQK-6-13" value="" style="html=1;jettySize=18;whiteSpace=wrap;fontSize=13;strokeColor=#666666;strokeOpacity=100;strokeWidth=0.8;rounded=1;arcSize=24;edgeStyle=orthogonalEdgeStyle;startArrow=none;endArrow=block;endFill=1;exitX=1.009;exitY=0.5;exitPerimeter=0;entryX=-0.009;entryY=0.5;entryPerimeter=0;lucidId=TKVuQf85Eefx;fillColor=#f5f5f5;" edge="1" parent="1" source="e1cLH0yN7D-U8VaVQK-6-8" target="e1cLH0yN7D-U8VaVQK-6-7">
          <mxGeometry width="100" height="100" relative="1" as="geometry">
            <Array as="points" />
          </mxGeometry>
        </mxCell>
        <mxCell id="e1cLH0yN7D-U8VaVQK-6-14" value="" style="html=1;jettySize=18;whiteSpace=wrap;fontSize=13;strokeColor=#666666;strokeOpacity=100;strokeWidth=0.8;rounded=1;arcSize=24;edgeStyle=orthogonalEdgeStyle;startArrow=none;endArrow=block;endFill=1;exitX=1.009;exitY=0.5;exitPerimeter=0;entryX=-0.009;entryY=0.5;entryPerimeter=0;lucidId=-LVuaBZoTzxL;fillColor=#f5f5f5;" edge="1" parent="1" source="e1cLH0yN7D-U8VaVQK-6-7" target="e1cLH0yN7D-U8VaVQK-6-9">
          <mxGeometry width="100" height="100" relative="1" as="geometry">
            <Array as="points" />
          </mxGeometry>
        </mxCell>
        <mxCell id="e1cLH0yN7D-U8VaVQK-6-15" value="" style="html=1;jettySize=18;whiteSpace=wrap;fontSize=13;strokeColor=#333333;strokeOpacity=100;strokeWidth=0.8;rounded=1;arcSize=24;edgeStyle=orthogonalEdgeStyle;startArrow=none;endArrow=block;endFill=1;exitX=1.009;exitY=0.472;exitPerimeter=0;entryX=0.016;entryY=0.481;entryPerimeter=0;lucidId=~MVuYsn6NPdR;" edge="1" parent="1" source="e1cLH0yN7D-U8VaVQK-6-9" target="e1cLH0yN7D-U8VaVQK-6-10">
          <mxGeometry width="100" height="100" relative="1" as="geometry">
            <Array as="points" />
          </mxGeometry>
        </mxCell>
        <mxCell id="e1cLH0yN7D-U8VaVQK-6-16" value="" style="html=1;jettySize=18;whiteSpace=wrap;fontSize=13;strokeColor=#333333;strokeOpacity=100;strokeWidth=0.8;rounded=1;arcSize=24;edgeStyle=orthogonalEdgeStyle;startArrow=none;endArrow=block;endFill=1;exitX=0.988;exitY=0.5;exitPerimeter=0;lucidId=iNVuGRAHNX2a;entryX=0;entryY=0.5;entryDx=0;entryDy=0;" edge="1" parent="1" source="e1cLH0yN7D-U8VaVQK-6-21" target="e1cLH0yN7D-U8VaVQK-6-24">
          <mxGeometry width="100" height="100" relative="1" as="geometry">
            <Array as="points" />
            <mxPoint x="658" y="1975.5" as="targetPoint" />
          </mxGeometry>
        </mxCell>
        <mxCell id="e1cLH0yN7D-U8VaVQK-6-17" value="Inicio" style="ellipse;whiteSpace=wrap;html=1;aspect=fixed;" vertex="1" parent="1">
          <mxGeometry x="-598" y="1935.5" width="80" height="80" as="geometry" />
        </mxCell>
        <mxCell id="e1cLH0yN7D-U8VaVQK-6-18" value="Fim" style="ellipse;whiteSpace=wrap;html=1;aspect=fixed;" vertex="1" parent="1">
          <mxGeometry x="981" y="1933.5" width="80" height="80" as="geometry" />
        </mxCell>
        <mxCell id="e1cLH0yN7D-U8VaVQK-6-19" value="Funcionario preenche informações" style="html=1;overflow=block;blockSpacing=1;whiteSpace=wrap;fontSize=13;align=center;spacing=9;strokeColor=#666666;strokeOpacity=100;fillOpacity=100;rounded=1;absoluteArcSize=1;arcSize=12;fillColor=#f5f5f5;strokeWidth=1.5;lucidId=TLVueEcK-3IP;container=0;fontColor=#333333;" vertex="1" parent="1">
          <mxGeometry x="360" y="1900" width="83" height="148" as="geometry" />
        </mxCell>
        <mxCell id="e1cLH0yN7D-U8VaVQK-6-20" value="" style="html=1;jettySize=18;whiteSpace=wrap;fontSize=13;strokeColor=#333333;strokeOpacity=100;strokeWidth=0.8;rounded=1;arcSize=24;edgeStyle=orthogonalEdgeStyle;startArrow=none;endArrow=block;endFill=1;exitX=0.988;exitY=0.5;exitPerimeter=0;entryX=-0.009;entryY=0.578;entryPerimeter=0;lucidId=iNVuGRAHNX2a;" edge="1" parent="1" source="e1cLH0yN7D-U8VaVQK-6-10" target="e1cLH0yN7D-U8VaVQK-6-21">
          <mxGeometry width="100" height="100" relative="1" as="geometry">
            <Array as="points" />
            <mxPoint x="599" y="1975.5" as="sourcePoint" />
            <mxPoint x="658" y="1983.5" as="targetPoint" />
          </mxGeometry>
        </mxCell>
        <mxCell id="e1cLH0yN7D-U8VaVQK-6-21" value="Não" style="text;html=1;resizable=0;labelBackgroundColor=default;align=center;verticalAlign=middle;fontColor=#666666;fontSize=13;container=0;" vertex="1" parent="1">
          <mxGeometry x="620.0043457854624" y="1975.495788659053" as="geometry">
            <mxPoint x="-4" y="-4" as="offset" />
          </mxGeometry>
        </mxCell>
        <mxCell id="e1cLH0yN7D-U8VaVQK-6-22" style="edgeStyle=orthogonalEdgeStyle;rounded=0;orthogonalLoop=1;jettySize=auto;html=1;exitX=1;exitY=0.5;exitDx=0;exitDy=0;" edge="1" parent="1" source="e1cLH0yN7D-U8VaVQK-6-26" target="e1cLH0yN7D-U8VaVQK-6-11">
          <mxGeometry relative="1" as="geometry" />
        </mxCell>
        <mxCell id="e1cLH0yN7D-U8VaVQK-6-23" value="" style="edgeStyle=orthogonalEdgeStyle;rounded=0;orthogonalLoop=1;jettySize=auto;html=1;" edge="1" parent="1" source="e1cLH0yN7D-U8VaVQK-6-24" target="e1cLH0yN7D-U8VaVQK-6-28">
          <mxGeometry relative="1" as="geometry" />
        </mxCell>
        <mxCell id="e1cLH0yN7D-U8VaVQK-6-24" value="Senhas coincidem?" style="html=1;overflow=block;blockSpacing=1;whiteSpace=wrap;rhombus;fontSize=13;fontColor=#ffffff;align=center;spacing=3.8;strokeColor=#6db1ff;strokeOpacity=100;fillOpacity=100;rounded=1;absoluteArcSize=1;arcSize=12;fillColor=#4c535d;strokeWidth=1.5;lucidId=IMVukuP4WiCF;container=0;" vertex="1" parent="1">
          <mxGeometry x="670" y="1905.5" width="105" height="133" as="geometry" />
        </mxCell>
        <mxCell id="e1cLH0yN7D-U8VaVQK-6-25" value="" style="edgeStyle=orthogonalEdgeStyle;rounded=0;orthogonalLoop=1;jettySize=auto;html=1;exitX=1;exitY=0.5;exitDx=0;exitDy=0;entryX=0;entryY=0.5;entryDx=0;entryDy=0;" edge="1" parent="1" source="e1cLH0yN7D-U8VaVQK-6-24" target="e1cLH0yN7D-U8VaVQK-6-26">
          <mxGeometry relative="1" as="geometry">
            <mxPoint x="775" y="1972.5" as="sourcePoint" />
            <mxPoint x="810" y="1973.5" as="targetPoint" />
          </mxGeometry>
        </mxCell>
        <mxCell id="e1cLH0yN7D-U8VaVQK-6-26" value="Sim" style="text;html=1;resizable=0;labelBackgroundColor=default;align=center;verticalAlign=middle;fontColor=#666666;fontSize=13;container=0;" vertex="1" parent="1">
          <mxGeometry x="789.9981701353711" y="1971.496955966782" as="geometry" />
        </mxCell>
        <mxCell id="e1cLH0yN7D-U8VaVQK-6-27" style="edgeStyle=orthogonalEdgeStyle;rounded=0;orthogonalLoop=1;jettySize=auto;html=1;entryX=0.75;entryY=1;entryDx=0;entryDy=0;exitX=-0.003;exitY=0.886;exitDx=0;exitDy=0;exitPerimeter=0;" edge="1" parent="1" source="e1cLH0yN7D-U8VaVQK-6-28" target="e1cLH0yN7D-U8VaVQK-6-19">
          <mxGeometry relative="1" as="geometry">
            <mxPoint x="722.5" y="2544.108695652174" as="targetPoint" />
          </mxGeometry>
        </mxCell>
        <mxCell id="e1cLH0yN7D-U8VaVQK-6-28" value="Senhas não coincidem" style="html=1;overflow=block;blockSpacing=1;whiteSpace=wrap;fontSize=13;align=center;spacing=9;strokeColor=#666666;strokeOpacity=100;fillOpacity=100;rounded=1;absoluteArcSize=1;arcSize=12;fillColor=#f5f5f5;strokeWidth=1.5;lucidId=TLVueEcK-3IP;container=0;fontColor=#333333;" vertex="1" parent="1">
          <mxGeometry x="681" y="2081.5" width="83" height="150" as="geometry" />
        </mxCell>
        <mxCell id="e1cLH0yN7D-U8VaVQK-6-29" style="edgeStyle=orthogonalEdgeStyle;rounded=0;orthogonalLoop=1;jettySize=auto;html=1;entryX=0.135;entryY=0.99;entryDx=0;entryDy=0;entryPerimeter=0;" edge="1" parent="1" source="e1cLH0yN7D-U8VaVQK-6-1" target="e1cLH0yN7D-U8VaVQK-6-19">
          <mxGeometry relative="1" as="geometry" />
        </mxCell>
        <mxCell id="e1cLH0yN7D-U8VaVQK-6-32" value="" style="html=1;jettySize=18;whiteSpace=wrap;fontSize=13;strokeColor=#333333;strokeOpacity=100;strokeWidth=0.8;rounded=1;arcSize=24;edgeStyle=orthogonalEdgeStyle;startArrow=none;endArrow=block;endFill=1;exitX=1.009;exitY=0.472;exitPerimeter=0;entryX=-0.01;entryY=0.456;entryPerimeter=0;lucidId=~MVuYsn6NPdR;entryDx=0;entryDy=0;" edge="1" parent="1" source="4FQ50ClIXps-ypR4PjHm-12" target="0EA6MbTcyLA7fgF79G77-6">
          <mxGeometry width="100" height="100" relative="1" as="geometry">
            <Array as="points" />
            <mxPoint x="69" y="1376" as="sourcePoint" />
            <mxPoint x="477" y="1381" as="targetPoint" />
          </mxGeometry>
        </mxCell>
        <mxCell id="e1cLH0yN7D-U8VaVQK-6-30" value="Salvar alterações?" style="html=1;overflow=block;blockSpacing=1;whiteSpace=wrap;rhombus;fontSize=13;fontColor=#ffffff;align=center;spacing=3.8;strokeColor=#6db1ff;strokeOpacity=100;fillOpacity=100;rounded=1;absoluteArcSize=1;arcSize=12;fillColor=#4c535d;strokeWidth=1.5;lucidId=IMVukuP4WiCF;container=0;" vertex="1" parent="1">
          <mxGeometry x="270" y="1313" width="105" height="133" as="geometry" />
        </mxCell>
        <mxCell id="e1cLH0yN7D-U8VaVQK-6-33" value="&lt;span style=&quot;color: rgb(102, 102, 102); font-family: Helvetica; font-size: 13px; font-style: normal; font-variant-ligatures: normal; font-variant-caps: normal; font-weight: 400; letter-spacing: normal; orphans: 2; text-align: center; text-indent: 0px; text-transform: none; widows: 2; word-spacing: 0px; -webkit-text-stroke-width: 0px; white-space: nowrap; background-color: rgb(255, 255, 255); text-decoration-thickness: initial; text-decoration-style: initial; text-decoration-color: initial; display: inline !important; float: none;&quot;&gt;Sim&lt;/span&gt;" style="text;whiteSpace=wrap;html=1;" vertex="1" parent="1">
          <mxGeometry x="410" y="1362" width="60" height="40" as="geometry" />
        </mxCell>
        <mxCell id="e1cLH0yN7D-U8VaVQK-6-44" style="edgeStyle=orthogonalEdgeStyle;rounded=0;orthogonalLoop=1;jettySize=auto;html=1;entryX=0.5;entryY=0;entryDx=0;entryDy=0;" edge="1" parent="1" source="e1cLH0yN7D-U8VaVQK-6-40" target="0EA6MbTcyLA7fgF79G77-3">
          <mxGeometry relative="1" as="geometry" />
        </mxCell>
        <mxCell id="e1cLH0yN7D-U8VaVQK-6-40" value="Fecha campo de alteração" style="html=1;overflow=block;blockSpacing=1;whiteSpace=wrap;fontSize=13;align=center;spacing=9;strokeColor=#666666;strokeOpacity=100;fillOpacity=100;rounded=1;absoluteArcSize=1;arcSize=12;fillColor=#f5f5f5;strokeWidth=1.5;lucidId=TLVueEcK-3IP;container=0;fontColor=#333333;" vertex="1" parent="1">
          <mxGeometry x="277" y="1110" width="83" height="68" as="geometry" />
        </mxCell>
        <mxCell id="e1cLH0yN7D-U8VaVQK-6-43" style="edgeStyle=orthogonalEdgeStyle;rounded=0;orthogonalLoop=1;jettySize=auto;html=1;exitX=0.5;exitY=0;exitDx=0;exitDy=0;entryX=0.556;entryY=1.013;entryDx=0;entryDy=0;entryPerimeter=0;" edge="1" parent="1" source="e1cLH0yN7D-U8VaVQK-6-30" target="e1cLH0yN7D-U8VaVQK-6-40">
          <mxGeometry relative="1" as="geometry" />
        </mxCell>
        <mxCell id="e1cLH0yN7D-U8VaVQK-6-41" value="&lt;span style=&quot;color: rgb(102, 102, 102); font-family: Helvetica; font-size: 13px; font-style: normal; font-variant-ligatures: normal; font-variant-caps: normal; font-weight: 400; letter-spacing: normal; orphans: 2; text-align: center; text-indent: 0px; text-transform: none; widows: 2; word-spacing: 0px; -webkit-text-stroke-width: 0px; white-space: nowrap; background-color: rgb(255, 255, 255); text-decoration-thickness: initial; text-decoration-style: initial; text-decoration-color: initial; display: inline !important; float: none;&quot;&gt;Não&lt;/span&gt;" style="text;whiteSpace=wrap;html=1;" vertex="1" parent="1">
          <mxGeometry x="310" y="1240" width="60" height="40" as="geometry" />
        </mxCell>
      </root>
    </mxGraphModel>
  </diagram>
</mxfile>
